<svg xmlns="http://www.w3.org/2000/svg" width="29.12" height="35.792" viewBox="0 0 29.12 35.792">
  <g id="_Group_" data-name="&lt;Group&gt;" transform="translate(0 0)">
    <g id="_Group_2" data-name="&lt;Group&gt;">
      <path id="_Path_" data-name="&lt;Path&gt;" d="M34.293,24.373a8.134,8.134,0,0,1,3.874-6.824A8.327,8.327,0,0,0,31.606,14c-2.76-.289-5.436,1.652-6.842,1.652-1.434,0-3.6-1.623-5.933-1.574a8.737,8.737,0,0,0-7.345,4.484c-3.178,5.5-.807,13.592,2.238,18.041,1.524,2.178,3.3,4.612,5.633,4.525,2.28-.094,3.131-1.454,5.883-1.454,2.726,0,3.525,1.454,5.9,1.4,2.446-.039,3.988-2.188,5.457-4.387A18.018,18.018,0,0,0,39.1,31.6a7.86,7.86,0,0,1-4.8-7.228Z" transform="translate(-9.975 -5.339)" fill="#fff"/>
      <path id="_Path_2" data-name="&lt;Path&gt;" d="M24.127,14.457A8.009,8.009,0,0,0,25.959,8.72a8.149,8.149,0,0,0-5.272,2.728,7.621,7.621,0,0,0-1.88,5.525A6.737,6.737,0,0,0,24.127,14.457Z" transform="translate(-4.299 -8.72)" fill="#fff"/>
    </g>
  </g>
</svg>
