<svg xmlns="http://www.w3.org/2000/svg" width="219.016" height="64.971" viewBox="0 0 219.016 64.971">
  <g id="Download_on_the_App_Store_Badge_US-UK_RGB_blk_092917" transform="translate(0)">
    <g id="Group_1491" data-name="Group 1491" transform="translate(0 0)">
      <g id="Group_1489" data-name="Group 1489">
        <path id="Path_14984" data-name="Path 14984" d="M14.937,65.846c-.566,0-1.118-.007-1.679-.019a25.715,25.715,0,0,1-3.472-.277,11.653,11.653,0,0,1-3.073-.931,10.055,10.055,0,0,1-2.595-1.727,9.166,9.166,0,0,1-2.9-5.187A19.328,19.328,0,0,1,.9,54.522C.89,54.163.874,52.97.874,52.97V13.733S.89,12.558.9,12.213a19.264,19.264,0,0,1,.307-3.175,9.245,9.245,0,0,1,2.9-5.2A10.353,10.353,0,0,1,6.708,2.1,11.536,11.536,0,0,1,9.78,1.174,25.509,25.509,0,0,1,13.262.9L14.938.875H205.82l1.7.022a25.1,25.1,0,0,1,3.452.276,11.766,11.766,0,0,1,3.105.934,9.987,9.987,0,0,1,4.486,4.11,9.211,9.211,0,0,1,.994,2.8,20.245,20.245,0,0,1,.318,3.206c.005.481.005,1,.005,1.512.015.637.015,1.243.015,1.855V51.136c0,.618,0,1.22-.015,1.826,0,.547,0,1.059-.007,1.579a19.83,19.83,0,0,1-.318,3.148,9.17,9.17,0,0,1-1,2.837,9.4,9.4,0,0,1-1.886,2.354,10.063,10.063,0,0,1-2.6,1.737,11.612,11.612,0,0,1-3.1.934,25.42,25.42,0,0,1-3.472.277c-.544.012-1.114.019-1.667.019H14.937Z" transform="translate(-0.874 -0.875)"/>
      </g>
      <g id="_Group_" data-name="&lt;Group&gt;" transform="translate(19.195 16.055)">
        <g id="_Group_2" data-name="&lt;Group&gt;" transform="translate(0 0)">
          <g id="_Group_3" data-name="&lt;Group&gt;">
            <path id="_Path_" data-name="&lt;Path&gt;" d="M34.293,24.373a8.134,8.134,0,0,1,3.874-6.824A8.327,8.327,0,0,0,31.606,14c-2.76-.289-5.436,1.652-6.842,1.652-1.434,0-3.6-1.623-5.933-1.574a8.737,8.737,0,0,0-7.345,4.484c-3.178,5.5-.807,13.592,2.238,18.041,1.524,2.178,3.3,4.612,5.633,4.525,2.28-.094,3.131-1.454,5.883-1.454,2.726,0,3.525,1.454,5.9,1.4,2.446-.039,3.988-2.188,5.457-4.387A18.018,18.018,0,0,0,39.1,31.6a7.86,7.86,0,0,1-4.8-7.228Z" transform="translate(-9.975 -5.339)" fill="#fff"/>
            <path id="_Path_2" data-name="&lt;Path&gt;" d="M24.127,14.457A8.009,8.009,0,0,0,25.959,8.72a8.149,8.149,0,0,0-5.272,2.728,7.621,7.621,0,0,0-1.88,5.525A6.737,6.737,0,0,0,24.127,14.457Z" transform="translate(-4.299 -8.72)" fill="#fff"/>
          </g>
        </g>
        <g id="Group_1490" data-name="Group 1490" transform="translate(50.788 15.047)">
          <path id="Path_14985" data-name="Path 14985" d="M47.371,32.972H39.59l-1.868,5.517h-3.3L41.8,18.078h3.423l7.369,20.411h-3.35ZM40.4,30.43h6.167l-3.04-8.954h-.085Z" transform="translate(-34.427 -17.744)" fill="#fff"/>
          <path id="Path_14986" data-name="Path 14986" d="M60.649,28.946c0,4.625-2.475,7.6-6.21,7.6a5.045,5.045,0,0,1-4.682-2.6h-.071v7.371H46.631v-19.8h2.957v2.475h.056a5.278,5.278,0,0,1,4.738-2.631C58.159,21.349,60.649,24.334,60.649,28.946Zm-3.139,0c0-3.013-1.557-4.993-3.933-4.993-2.331,0-3.9,2.023-3.9,4.993,0,3,1.57,5.006,3.9,5.006,2.375,0,3.934-1.966,3.934-5.006Z" transform="translate(-26.573 -15.64)" fill="#fff"/>
          <path id="Path_14987" data-name="Path 14987" d="M70.614,28.946c0,4.625-2.475,7.6-6.21,7.6a5.045,5.045,0,0,1-4.682-2.6h-.071v7.371H56.6v-19.8h2.957v2.475h.056a5.278,5.278,0,0,1,4.738-2.631C68.124,21.349,70.614,24.334,70.614,28.946Zm-3.139,0c0-3.013-1.557-4.993-3.933-4.993-2.331,0-3.9,2.023-3.9,4.993,0,3,1.57,5.006,3.9,5.006C65.917,33.952,67.475,31.985,67.475,28.946Z" transform="translate(-20.159 -15.64)" fill="#fff"/>
          <path id="Path_14988" data-name="Path 14988" d="M72.934,32.935c.227,2.024,2.192,3.353,4.88,3.353,2.575,0,4.427-1.329,4.427-3.154,0-1.589-1.117-2.533-3.762-3.178L75.83,29.32c-3.747-.9-5.488-2.658-5.488-5.5,0-3.522,3.073-5.941,7.427-5.941,4.313,0,7.269,2.419,7.369,5.941h-3.08c-.18-2.044-1.868-3.267-4.328-3.267s-4.145,1.244-4.145,3.055c0,1.443,1.075,2.292,3.708,2.942l2.248.552c4.188.991,5.928,2.672,5.928,5.658,0,3.814-3.042,6.21-7.879,6.21-4.526,0-7.583-2.331-7.78-6.027Z" transform="translate(-11.654 -17.877)" fill="#fff"/>
          <path id="Path_14989" data-name="Path 14989" d="M85.394,19.3v3.522h2.83v2.419h-2.83v8.2c0,1.271.567,1.868,1.811,1.868a9.541,9.541,0,0,0,1-.071v2.4a8.389,8.389,0,0,1-1.7.141c-3.013,0-4.188-1.132-4.188-4.018V25.241H80.163V22.822h2.158V19.3Z" transform="translate(-4.991 -16.957)" fill="#fff"/>
          <path id="Path_14990" data-name="Path 14990" d="M86.065,28.955c0-4.682,2.755-7.628,7.057-7.628s7.059,2.942,7.059,7.628-2.73,7.628-7.059,7.628S86.065,33.651,86.065,28.955Zm11.005,0c0-3.211-1.472-5.108-3.947-5.108s-3.949,1.91-3.949,5.108c0,3.225,1.471,5.106,3.946,5.106s3.947-1.882,3.947-5.106Z" transform="translate(-1.191 -15.65)" fill="#fff"/>
          <path id="Path_14991" data-name="Path 14991" d="M96.186,21.509H99.1v2.533h.068a3.549,3.549,0,0,1,3.579-2.689,4.711,4.711,0,0,1,1.047.114v2.861a4.27,4.27,0,0,0-1.377-.184,3.078,3.078,0,0,0-3.178,3.423v8.827H96.186Z" transform="translate(5.323 -15.64)" fill="#fff"/>
          <path id="Path_14992" data-name="Path 14992" d="M114.641,32.024c-.411,2.7-3.042,4.556-6.408,4.556-4.329,0-7.016-2.9-7.016-7.553s2.7-7.7,6.887-7.7c4.117,0,6.707,2.828,6.707,7.34v1.047H104.3V29.9a3.876,3.876,0,0,0,4,4.215,3.367,3.367,0,0,0,3.437-2.094Zm-10.326-4.441h7.44a3.579,3.579,0,0,0-3.65-3.777,3.768,3.768,0,0,0-3.79,3.777Z" transform="translate(8.562 -15.65)" fill="#fff"/>
        </g>
      </g>
    </g>
    <g id="_Group_4" data-name="&lt;Group&gt;" transform="translate(72.028 14.029)">
      <g id="Group_1492" data-name="Group 1492">
        <path id="Path_14993" data-name="Path 14993" d="M39.213,8.736a4.339,4.339,0,0,1,4.615,4.874c0,3.133-1.7,4.934-4.615,4.934H35.671V8.736Zm-2.019,8.421h1.849a3.083,3.083,0,0,0,3.235-3.527,3.092,3.092,0,0,0-3.235-3.507H37.195Z" transform="translate(-35.671 -8.252)" fill="#fff"/>
        <path id="Path_14994" data-name="Path 14994" d="M41.687,13.947a3.506,3.506,0,1,1,6.981,0,3.507,3.507,0,1,1-6.981,0Zm5.479,0c0-1.6-.72-2.543-1.986-2.543s-1.983.939-1.983,2.543S43.911,16.5,45.18,16.5s1.986-.938,1.986-2.548Z" transform="translate(-31.809 -7.361)" fill="#fff"/>
        <path id="Path_14995" data-name="Path 14995" d="M54.794,17.6H53.277l-1.53-5.451h-.115L50.11,17.6h-1.5l-2.041-7.4h1.483l1.325,5.647h.106l1.521-5.647h1.4l1.521,5.647h.115l1.319-5.647h1.463Z" transform="translate(-28.656 -7.306)" fill="#fff"/>
        <path id="Path_14996" data-name="Path 14996" d="M53.854,10.253H55.26v1.176h.106a2.215,2.215,0,0,1,2.209-1.319,2.407,2.407,0,0,1,2.562,2.755v4.791H58.679V13.231c0-1.19-.517-1.781-1.6-1.781a1.7,1.7,0,0,0-1.767,1.875v4.33H53.854Z" transform="translate(-23.968 -7.364)" fill="#fff"/>
        <path id="Path_14997" data-name="Path 14997" d="M59.094,8.437h1.461V18.728H59.094Z" transform="translate(-20.595 -8.437)" fill="#fff"/>
        <path id="Path_14998" data-name="Path 14998" d="M61.224,13.949a3.507,3.507,0,1,1,6.981,0,3.507,3.507,0,1,1-6.981,0Zm5.479,0c0-1.6-.72-2.543-1.985-2.543s-1.983.939-1.983,2.543.714,2.548,1.983,2.548,1.985-.938,1.985-2.548Z" transform="translate(-19.235 -7.362)" fill="#fff"/>
        <path id="Path_14999" data-name="Path 14999" d="M66.4,15.559c0-1.332.992-2.1,2.755-2.209l2-.115V12.6c0-.782-.517-1.223-1.515-1.223-.816,0-1.377.3-1.543.822H66.687c.149-1.271,1.346-2.086,3.024-2.086,1.855,0,2.9.924,2.9,2.487v5.057H71.207v-1.04h-.115a2.49,2.49,0,0,1-2.225,1.165A2.236,2.236,0,0,1,66.4,15.559Zm4.757-.636V14.3l-1.808.115c-1.019.068-1.483.415-1.483,1.067s.577,1.054,1.377,1.054a1.745,1.745,0,0,0,1.917-1.618Z" transform="translate(-15.892 -7.362)" fill="#fff"/>
        <path id="Path_15000" data-name="Path 15000" d="M71.348,15.024c0-2.338,1.2-3.821,3.073-3.821a2.437,2.437,0,0,1,2.269,1.3H76.8V8.437h1.461V18.728h-1.4V17.562h-.115a2.568,2.568,0,0,1-2.325,1.292C72.538,18.85,71.348,17.367,71.348,15.024Zm1.509,0c0,1.57.742,2.514,1.977,2.514s1.992-.954,1.992-2.508-.769-2.514-1.992-2.514-1.978.954-1.978,2.508Z" transform="translate(-12.708 -8.437)" fill="#fff"/>
        <path id="Path_15001" data-name="Path 15001" d="M79.237,13.947a3.506,3.506,0,1,1,6.981,0,3.507,3.507,0,1,1-6.981,0Zm5.479,0c0-1.6-.72-2.543-1.986-2.543s-1.983.939-1.983,2.543S81.461,16.5,82.73,16.5s1.984-.937,1.984-2.548Z" transform="translate(-7.641 -7.361)" fill="#fff"/>
        <path id="Path_15002" data-name="Path 15002" d="M84.669,10.253h1.41v1.176h.106a2.215,2.215,0,0,1,2.209-1.319,2.407,2.407,0,0,1,2.562,2.755v4.791H89.494V13.231c0-1.19-.517-1.781-1.6-1.781a1.7,1.7,0,0,0-1.767,1.875v4.33H84.669Z" transform="translate(-4.133 -7.364)" fill="#fff"/>
        <path id="Path_15003" data-name="Path 15003" d="M94.548,9.074V10.95h1.6v1.23h-1.6v3.808c0,.776.318,1.115,1.047,1.115a4.874,4.874,0,0,0,.557-.034v1.216a4.792,4.792,0,0,1-.795.074c-1.624,0-2.272-.571-2.272-2V12.18H91.911V10.95h1.175V9.074Z" transform="translate(0.527 -8.027)" fill="#fff"/>
        <path id="Path_15004" data-name="Path 15004" d="M95.7,8.437h1.448v4.079h.115a2.278,2.278,0,0,1,2.257-1.325,2.437,2.437,0,0,1,2.549,2.755v4.778h-1.462V14.31c0-1.182-.551-1.781-1.583-1.781a1.729,1.729,0,0,0-1.864,1.876v4.323H95.7Z" transform="translate(2.969 -8.437)" fill="#fff"/>
        <path id="Path_15005" data-name="Path 15005" d="M107.368,15.653a3,3,0,0,1-3.207,2.141,3.362,3.362,0,0,1-3.419-3.821,3.414,3.414,0,0,1,3.413-3.867c2.06,0,3.3,1.407,3.3,3.732v.51h-5.227v.082a1.956,1.956,0,0,0,1.971,2.119,1.774,1.774,0,0,0,1.761-.9Zm-5.138-2.385h3.738a1.785,1.785,0,0,0-1.822-1.918,1.893,1.893,0,0,0-1.917,1.918Z" transform="translate(6.191 -7.362)" fill="#fff"/>
      </g>
    </g>
  </g>
</svg>
