<svg id="apple-icon" xmlns="http://www.w3.org/2000/svg" width="19.925" height="24.819" viewBox="0 0 19.925 24.819">
  <path id="Path_18" data-name="Path 18" d="M16.642,12.183a5.656,5.656,0,0,1,2.65-4.732A5.678,5.678,0,0,0,14.8,4.992c-1.888-.2-3.719,1.145-4.682,1.145-.981,0-2.463-1.125-4.058-1.092a5.968,5.968,0,0,0-5.03,3.109C-1.142,11.97.48,17.579,2.564,20.664c1.042,1.511,2.261,3.2,3.855,3.138,1.56-.066,2.143-1.008,4.026-1.008,1.865,0,2.412,1.008,4.039.97,1.674-.028,2.728-1.517,3.734-3.042A12.562,12.562,0,0,0,19.925,17.2,5.452,5.452,0,0,1,16.642,12.183Z" transform="translate(0 1.015)" fill="#fff"/>
  <path id="Path_19" data-name="Path 19" d="M11.886,3.978A5.6,5.6,0,0,0,13.139,0,5.552,5.552,0,0,0,9.532,1.892,5.329,5.329,0,0,0,8.245,5.723,4.586,4.586,0,0,0,11.886,3.978Z" transform="translate(1.681)" fill="#fff"/>
</svg>
