<svg xmlns="http://www.w3.org/2000/svg" width="146.401" height="115.442" viewBox="0 0 146.401 115.442">
  <g id="Group_33" data-name="Group 33" transform="translate(-238.182 -283.899)">
    <path id="Path_312" data-name="Path 312" d="M384.583,390.819c-48.8-29.519-97.6,29.519-146.4,0v-98.4c48.8,29.519,97.6-29.519,146.4,0Z" fill="#c1c1bf"/>
    <g id="Group_32" data-name="Group 32" transform="translate(239.435 285.037)">
      <path id="Path_313" data-name="Path 313" d="M382.489,333.028c-48.006-27.7-96.007,28.96-144.009,1.41v-24c48,27.55,96-29.113,144.009-1.41Z" transform="translate(-238.472 -229.176)" fill="#e71a22"/>
      <path id="Path_314" data-name="Path 314" d="M382.489,316.02c-48.006-27.7-96.007,28.96-144.009,1.41v-24c48,27.551,96-29.112,144.009-1.41Z" transform="translate(-238.472 -284.168)" fill="#e71a22"/>
      <path id="Path_315" data-name="Path 315" d="M382.5,345.694c-48.006-27.707-96.011,28.964-144.017,1.405v-48c48.006,27.559,96.011-29.112,144.017-1.405Z" transform="translate(-238.478 -265.836)" fill="#fff"/>
      <path id="Path_316" data-name="Path 316" d="M288.083,318.753c-1.156-.474-1.181-1-.055-2s2.049-.449,3.264-.068a3.991,3.991,0,0,0,2.785-.652,37.082,37.082,0,0,1-4.724-2.866,2.77,2.77,0,0,0-2.468-.775s-1.744.584-2.007.038c-.267-.563,2.616-1.516,2.616-1.511,0-.013,4.2-.969,4.365-1.681.169-.737-3.874-.648-3.874-.631,0-.008-3.357.237-3.107-.508s2.637-.918,3.962-1.007,1.5-.292,1.384-.563-3.3-1.376-4.212-1.647a18.336,18.336,0,0,1-2.849-1.524,5.119,5.119,0,0,0-2.409-1.012c-1.486-.212-1.045-.91-1.045-.91.817-1.151,2.561-.631,2.561-.631a9.891,9.891,0,0,0,3.759-.673,9.943,9.943,0,0,1-5.008-1.85,14.4,14.4,0,0,1,3.035-.868c-3.035-1.82-4.081-2.112-7.383-1.926s-4.424-3.315-4.424-3.315a18.8,18.8,0,0,1-2.917,4.428,28.981,28.981,0,0,0-2.929,3.683,13.2,13.2,0,0,1,1.744-1.071c1.2-.639.571-.051.288.525a23.8,23.8,0,0,1-3,2.769s-1.786,1.638-1.613,1.892.529-.021.529-.021.876-.749,1.363-.059a.648.648,0,0,1-.317,1.024s-2.015.644-2.468,2.121a4.046,4.046,0,0,1-1.744,2.184,39.872,39.872,0,0,0-3.878,3.484c-.643.885.114.762,1.05.5s2.388-1.795,3.167-.893.114,1.808-.876,3.285a6.618,6.618,0,0,1-2.828,2.227,23.927,23.927,0,0,0-3.226,3.675c-.453.7-1.668.952-.322,1.389s2.561-1.2,2.561-1.2,1.2-1.977,2.451-.9-1.084,2.688-2.582,3.874a33.74,33.74,0,0,0-4.305,4.665,3.067,3.067,0,0,1-2.282,1.122s.876.995,3.285-.047,3.793-2.845,5.732-4.072,2.375.085,1.541,1.308-5.846,3.7-7.54,4.953c-1.689,1.274,1.27.952,1.27.944,1.863-.021,6.134-3.162,8.086-4.606s2.434-1.444,3.171-1.317,1.731.614,1.5,2.35-2.184,4.686-2.184,4.686-1.82,2.642-3.281,3.26a5.559,5.559,0,0,0-2.239,1.74s-1.236,1.7-.859,1.655.533-.351,1.52-1.477,2.371-1.342,3.793-2.019a10.6,10.6,0,0,0,3.137-2.815,4.941,4.941,0,0,1,2.18-1.452c.5-.017.5.288,1.215.072a4.081,4.081,0,0,0,1.253-.648s.948-.7,1.025.127a1.025,1.025,0,0,0,.724.978,12.439,12.439,0,0,1,1.952.952c1.554.834.838-.292.44-.948s.017-.542,2.011-1.117,2.561.271,2.561.271a2.52,2.52,0,0,0,2.447.957c1.389-.411-1.477-1.681-1.477-1.681a15.536,15.536,0,0,1-3.492-2.917c-1.062-1.431-.114-5.664-.114-5.664,1.118-2.4,2.883-1.308,2.883-1.308,1.1.775,4.75-.47,6.079-.91a6.888,6.888,0,0,1,5.715.538c2.5,1.3,3.048.284,3.048.275C296.359,320.785,289.243,319.172,288.083,318.753ZM275.8,306.112c-.4,1.317-1.215,1.088-1.575,1.046s.453-1.372,1.063-1.841S275.8,306.112,275.8,306.112Zm-1.024-5.232c.813-.263.741.614.741.614a2.149,2.149,0,0,1-1.219.517C273.5,302.1,273.961,301.147,274.778,300.88Zm-2.337,6.684c-.487-.025-.974-.047-1.465-.072,0,0,1.579-1.613,2.32-1.325S272.441,307.564,272.441,307.564Zm-5.846-4.432a.854.854,0,0,1,.834-.817s.91-.195,0,.927S266.5,303.958,266.6,303.132Zm.986,2.443s1.2-1.727,1.71-1.312-.631,1.9-.631,1.9-.169.339-1.592,1.16S267.581,305.575,267.581,305.575Zm-2.807,12.708c-.229,1.228-3.628,2.976-3.971,2.764a6.062,6.062,0,0,1-.948-1.6C259.856,319.464,265,317.072,264.775,318.283Zm-2.163-5.982s-1.1-.754.207-1.621,2.108,1.274,2.108,1.274C263.4,313.423,262.611,312.3,262.611,312.3Zm4.1,12.488c-.55.3-1.346-1.287-1.215-2.184s1.422-.169,1.422-.169C267.357,323.117,267.255,324.5,266.709,324.79Zm-.186-14.2c-.8,1.245-1.012.415-1.012.415a2.542,2.542,0,0,1-.3-.783c-.207-.7.478-.842,1.562-1.207S267.315,309.351,266.523,310.591Zm.868,4.034c-.135-.589,1.2-.284,1.2-.284s.682.614.279.868A1.128,1.128,0,0,1,267.391,314.626Zm2.5,8.649c-.11.83-.775.08-.775.08s-.762-.622-.4-1.058,1.025.127,1.025.127S270.011,322.44,269.893,323.274Zm.44-19.058c-.571-.529.931-1.63,1.956-2.371s.665.876.665.876S270.9,304.745,270.333,304.216Zm.4,9.559s-.381-.457.207-1.084.682.262.682.262C271.4,314.9,270.735,313.775,270.735,313.775Zm2.54,7.07a15.949,15.949,0,0,1-1.308,2.354s-1.062-1.825-.55-2.21S273.394,320.336,273.275,320.844Zm-.148-5.99c-.762-.377-.571-.817-.135-1.761s1.16.406,1.16.406C274.829,314.723,273.885,315.235,273.127,314.854Zm2.35-.216s-.834-.144-.457-1.037.745.381.745.381C275.989,314.791,275.477,314.638,275.477,314.638ZM280.794,309a1.518,1.518,0,0,1,1.537-1.13s.555-.135.453.745a1.069,1.069,0,0,1-.72,1.025S280.544,310.168,280.794,309Zm-4.326-7.658c.034-.9,1.422-1.2,1.422-1.2a1.148,1.148,0,0,1-.474,1.583C277.166,301.926,276.425,302.243,276.467,301.337Zm1.461,5.922s-1.211.191-.914-.826,1.863-1.257,1.863-1.257,1.139-.411.948.969S277.928,307.259,277.928,307.259Zm4.652,9.457c-1.143,1.109-1.8,1.071-2.548.931s-.4-.627-.4-.627,1.956-1.981,3.078-1.825S282.58,316.717,282.58,316.717Zm3.433.749s-.914.135-1.672.178-.267-.974.707-1.888,1.041-.838,1.969-.478S286.013,317.462,286.013,317.466Z" transform="translate(-200.839 -258.288)" fill="#30a54e"/>
    </g>
  </g>
</svg>
