<svg xmlns="http://www.w3.org/2000/svg" width="146.401" height="115.442" viewBox="0 0 146.401 115.442">
  <g id="Group_36" data-name="Group 36" transform="translate(-374.245 -11.772)">
    <path id="Path_317" data-name="Path 317" d="M520.646,118.692c-48.8-29.519-97.6,29.519-146.4,0v-98.4c48.8,29.519,97.6-29.519,146.4,0Z" transform="translate(0 0)" fill="#c1c1bf"/>
    <g id="Group_35" data-name="Group 35" transform="translate(375.439 12.988)">
      <path id="Path_318" data-name="Path 318" d="M518.527,115.867c-48-27.61-96,29.04-144,1.418v-96c48,27.627,96-29.028,144-1.418Z" transform="translate(-374.527 -12.059)" fill="#00267e"/>
      <path id="Path_319" data-name="Path 319" d="M446.527,14.074c-2.887.872-5.766,1.744-8.653,2.578-9.114,8.721-18.229,17.073-27.347,23.905A123.81,123.81,0,0,1,383.18,18.879a59.475,59.475,0,0,1-8.653-4.1v5.766a133.12,133.12,0,0,0,27.347,26.005C392.76,52.3,383.646,56.174,374.527,57v5.77a59.477,59.477,0,0,0,8.653,4.1c9.119-2.637,18.233-7.954,27.347-14.783a176.748,176.748,0,0,0,27.347,12.556c2.887-.834,5.766-1.706,8.653-2.578V56.3A272.429,272.429,0,0,1,419.18,45.189c9.114-7.683,18.233-16.514,27.347-25.349Z" transform="translate(-374.527 -5.546)" fill="#fff"/>
      <path id="Path_320" data-name="Path 320" d="M374.527,14.24v2.879c12,14.91,24,24.549,36,31.555V45.787C398.526,38.785,386.528,29.145,374.527,14.24Z" transform="translate(-374.527 -5.009)" fill="#e0001e"/>
      <path id="Path_321" data-name="Path 321" d="M419.031,36.759c-12-4.373-24-8.742-36-15.748v2.883c12,7.006,24,11.375,36,15.748Z" transform="translate(-347.031 16.884)" fill="#e0001e"/>
      <path id="Path_322" data-name="Path 322" d="M374.527,38.143q2.165,1.238,4.326,2.265c10.558-2.04,21.116-7.916,31.674-15.828V21.692C398.526,30.688,386.528,37.046,374.527,38.143Z" transform="translate(-374.527 19.086)" fill="#e0001e"/>
      <path id="Path_323" data-name="Path 323" d="M414.709,15.374c-10.562,10.2-21.12,20.155-31.678,28.071v2.883c12-9,24-20.625,36-32.254C417.587,14.51,416.144,14.946,414.709,15.374Z" transform="translate(-347.031 -5.546)" fill="#e0001e"/>
      <g id="Group_34" data-name="Group 34" transform="translate(0 16.161)">
        <path id="Path_324" data-name="Path 324" d="M446.527,27.8c-11,3.323-22,6.651-33,7.95v-19.8c-2,.237-4,.406-6,.5v19.8a58.865,58.865,0,0,1-33-7.743v8.4a58.83,58.83,0,0,0,33,7.743v19.8c2-.089,4-.258,6-.5V44.15c11-1.3,22-4.623,33-7.95Z" transform="translate(-374.527 -15.634)" fill="#dd001f"/>
        <path id="Path_325" data-name="Path 325" d="M405.125,16.137V33.531a58.215,58.215,0,0,1-30.6-7.81v2.4a58.865,58.865,0,0,0,33,7.743v-19.8C406.725,16.1,405.925,16.128,405.125,16.137Z" transform="translate(-374.527 -15.256)" fill="#fff"/>
        <path id="Path_326" data-name="Path 326" d="M374.527,23.3a58.26,58.26,0,0,0,30.6,7.815v17.4c.8-.013,1.6-.034,2.4-.068v-19.8a58.83,58.83,0,0,1-33-7.743Z" transform="translate(-374.527 0.367)" fill="#fff"/>
        <path id="Path_327" data-name="Path 327" d="M416.739,20.735c-11,3.327-22,6.655-33,7.95v19.8c.8-.093,1.6-.2,2.4-.318v-17.4c10.2-1.465,20.4-4.551,30.594-7.637Z" transform="translate(-344.739 -0.17)" fill="#fff"/>
        <path id="Path_328" data-name="Path 328" d="M416.739,25.639c-10.2,3.086-20.4,6.168-30.594,7.637v-17.4c-.8.119-1.6.224-2.4.317v19.8c11-1.3,22-4.627,33-7.95Z" transform="translate(-344.739 -15.877)" fill="#fff"/>
      </g>
      <path id="Path_329" data-name="Path 329" d="M407.082,44.859a.078.078,0,0,0-.042-.093c-2.485-.931-4.966-1.935-7.451-3.031q2.4-3.962,4.8-8.039a.088.088,0,0,0,0-.106.073.073,0,0,0-.1-.008c-2.7,1.545-5.406,3.006-8.1,4.339q-1.321-3.969-2.646-7.98c-.025-.072-.148-.059-.174.017q-1.327,4.229-2.654,8.412a85.6,85.6,0,0,1-8.094-3.137.082.082,0,0,0-.106.021.1.1,0,0,0,0,.11q2.4,3.772,4.8,7.366-3.727,2.216-7.451,4.009a.085.085,0,0,0-.042.093.1.1,0,0,0,.08.076,66.837,66.837,0,0,0,8.623,1.139q-.6,4.3-1.19,8.585a.1.1,0,0,0,.157.076q2.984-3.156,5.965-6.54,2.985,2.889,5.965,5.575a.091.091,0,0,0,.068.017l.038-.017a.1.1,0,0,0,.051-.1q-.59-4.2-1.189-8.4c2.874-.648,5.753-1.427,8.623-2.3A.111.111,0,0,0,407.082,44.859Z" transform="translate(-357.446 45.601)" fill="#fff"/>
      <path id="Path_330" data-name="Path 330" d="M408.076,34.73c.728-1.113,1.456-2.222,2.184-3.315a.089.089,0,0,0,0-.106.088.088,0,0,0-.1-.03q-1.842.7-3.683,1.494c-.4-1.232-.809-2.455-1.211-3.679-.021-.072-.148-.064-.174.013-.4,1.274-.8,2.557-1.206,3.84q-1.842-.546-3.683-1.008a.1.1,0,0,0-.1.038.1.1,0,0,0,0,.11q1.092,1.5,2.176,3.031c-1.126.787-2.261,1.6-3.387,2.426a.1.1,0,0,0-.042.1.076.076,0,0,0,.076.059c1.312-.068,2.62-.11,3.928-.119-.182,1.317-.36,2.637-.542,3.954a.08.08,0,0,0,.055.089.1.1,0,0,0,.1-.03q1.359-1.568,2.718-3.086c.906.889,1.812,1.8,2.718,2.718a.071.071,0,0,0,.063.03l.038-.008a.1.1,0,0,0,.055-.1L407.5,37.27c1.308-.161,2.616-.292,3.924-.381a.089.089,0,0,0,.08-.072.085.085,0,0,0-.042-.093C410.34,36.03,409.206,35.37,408.076,34.73Z" transform="translate(-295.927 42.864)" fill="#fff"/>
      <path id="Path_331" data-name="Path 331" d="M402.782,26.7c.728-1.278,1.448-2.548,2.176-3.814a.088.088,0,0,0,0-.106.082.082,0,0,0-.1,0c-1.228.754-2.455,1.528-3.683,2.311-.4-1.147-.809-2.294-1.206-3.437-.026-.068-.152-.034-.174.047-.4,1.359-.809,2.714-1.211,4.077q-1.842-.2-3.683-.373a.12.12,0,0,0-.1.063.089.089,0,0,0,0,.106c.728.885,1.452,1.774,2.18,2.667q-1.7,1.48-3.387,2.976a.109.109,0,0,0-.042.106.068.068,0,0,0,.08.051c1.3-.267,2.616-.525,3.92-.775-.182,1.35-.36,2.705-.542,4.056a.067.067,0,0,0,.055.08.117.117,0,0,0,.106-.047q1.352-1.81,2.714-3.594c.906.711,1.812,1.431,2.718,2.151a.057.057,0,0,0,.063.013l.038-.017a.117.117,0,0,0,.055-.106c-.182-1.257-.36-2.515-.542-3.772,1.3-.444,2.616-.872,3.924-1.283a.126.126,0,0,0,.076-.089.068.068,0,0,0-.042-.085C405.038,27.486,403.908,27.084,402.782,26.7Z" transform="translate(-313.057 18.828)" fill="#fff"/>
      <path id="Path_332" data-name="Path 332" d="M402.843,23.454c-.182,1.317-.36,2.637-.542,3.958a.08.08,0,0,0,.055.089.1.1,0,0,0,.1-.03c.906-1.046,1.812-2.07,2.718-3.086.906.889,1.812,1.8,2.718,2.718a.071.071,0,0,0,.063.03l.038-.008a.1.1,0,0,0,.055-.1q-.273-1.943-.546-3.89,1.962-.241,3.924-.377a.089.089,0,0,0,.08-.072.085.085,0,0,0-.042-.093c-1.126-.694-2.261-1.355-3.391-1.994.728-1.113,1.456-2.222,2.184-3.315a.089.089,0,0,0,0-.106.088.088,0,0,0-.1-.03q-1.842.7-3.683,1.494c-.4-1.232-.809-2.455-1.211-3.679-.021-.072-.148-.063-.174.013-.4,1.274-.8,2.557-1.206,3.84q-1.842-.546-3.683-1.008a.1.1,0,0,0-.1.038.1.1,0,0,0,0,.11q1.092,1.5,2.176,3.031c-1.126.787-2.261,1.6-3.387,2.426a.1.1,0,0,0-.042.1.072.072,0,0,0,.076.059Q400.883,23.475,402.843,23.454Z" transform="translate(-295.927 -2.822)" fill="#fff"/>
      <path id="Path_333" data-name="Path 333" d="M416.219,29.553a.121.121,0,0,0-.042-.11q-1.689-1.645-3.387-3.179c.728-.868,1.452-1.723,2.18-2.561a.082.082,0,0,0,0-.1c-.03-.042-.072-.072-.1-.068q-1.842.051-3.683.241-.6-2.045-1.211-4.072c-.021-.08-.148-.11-.173-.042-.4,1.147-.8,2.3-1.206,3.463q-1.842-1.118-3.683-2.1a.075.075,0,0,0-.1.013.088.088,0,0,0,0,.106q1.092,1.81,2.18,3.666-1.7.673-3.391,1.452a.073.073,0,0,0-.042.089.113.113,0,0,0,.076.08q1.968.438,3.929,1.016c-.182,1.266-.36,2.527-.542,3.793a.113.113,0,0,0,.055.106.083.083,0,0,0,.1,0q1.359-1.156,2.718-2.244,1.359,1.765,2.714,3.611a.132.132,0,0,0,.068.051h.038a.063.063,0,0,0,.055-.076c-.182-1.359-.36-2.714-.542-4.068,1.3.275,2.616.6,3.92.982A.06.06,0,0,0,416.219,29.553Z" transform="translate(-280.698 12.393)" fill="#fff"/>
      <path id="Path_334" data-name="Path 334" d="M405.273,25.852q-.476-1.175-.953-2.345a.09.09,0,0,0-.165,0q-.483,1.175-.957,2.354c-.842.076-1.685.169-2.527.271a.111.111,0,0,0-.076.068.085.085,0,0,0,.03.093q.965.768,1.935,1.558c-.2.825-.4,1.651-.605,2.476a.08.08,0,0,0,.034.089.076.076,0,0,0,.1,0c.716-.466,1.435-.923,2.151-1.372.72.44,1.435.893,2.155,1.359l.047.017a.088.088,0,0,0,.051-.021.08.08,0,0,0,.034-.089c-.2-.825-.4-1.647-.6-2.472.643-.529,1.283-1.054,1.93-1.566a.094.094,0,0,0-.051-.161Q406.537,25.958,405.273,25.852Z" transform="translate(-290.25 24.78)" fill="#fff"/>
    </g>
  </g>
</svg>
