<svg xmlns="http://www.w3.org/2000/svg" xmlns:xlink="http://www.w3.org/1999/xlink" width="38.543" height="42.951" viewBox="0 0 38.543 42.951">
  <defs>
    <linearGradient id="linear-gradient" x1="0.915" y1="-0.665" x2="-0.383" y2="-1.334" gradientUnits="objectBoundingBox">
      <stop offset="0" stop-color="#00a0ff"/>
      <stop offset="0.007" stop-color="#00a1ff"/>
      <stop offset="0.26" stop-color="#00beff"/>
      <stop offset="0.512" stop-color="#00d2ff"/>
      <stop offset="0.76" stop-color="#00dfff"/>
      <stop offset="1" stop-color="#00e3ff"/>
    </linearGradient>
    <linearGradient id="linear-gradient-2" x1="1.076" y1="-4.233" x2="-1.305" y2="-4.233" gradientUnits="objectBoundingBox">
      <stop offset="0" stop-color="#ffe000"/>
      <stop offset="0.409" stop-color="#ffbd00"/>
      <stop offset="0.775" stop-color="orange"/>
      <stop offset="1" stop-color="#ff9c00"/>
    </linearGradient>
    <linearGradient id="linear-gradient-3" x1="0.862" y1="-3.327" x2="-0.501" y2="-5.097" gradientUnits="objectBoundingBox">
      <stop offset="0" stop-color="#ff3a44"/>
      <stop offset="1" stop-color="#c31162"/>
    </linearGradient>
    <linearGradient id="linear-gradient-4" x1="-0.188" y1="-0.607" x2="0.421" y2="-1.397" gradientUnits="objectBoundingBox">
      <stop offset="0" stop-color="#32a071"/>
      <stop offset="0.068" stop-color="#2da771"/>
      <stop offset="0.476" stop-color="#15cf74"/>
      <stop offset="0.801" stop-color="#06e775"/>
      <stop offset="1" stop-color="#00f076"/>
    </linearGradient>
  </defs>
  <g id="Group_1502" data-name="Group 1502" transform="translate(0.501 0.548)">
    <path id="Path_15038" data-name="Path 15038" d="M21.552,108.827a3.249,3.249,0,0,0-.751,2.282v35.953a3.256,3.256,0,0,0,.752,2.284l.121.117,20.14-20.14v-.477L21.672,108.709Z" transform="translate(-20.793 -108.181)" stroke="#707070" stroke-width="1" fill="url(#linear-gradient)"/>
    <path id="Path_15039" data-name="Path 15039" d="M40.437,130.874l-6.712-6.716v-.477l6.714-6.714.151.086,7.955,4.52c2.271,1.291,2.271,3.4,0,4.695l-7.955,4.52Z" transform="translate(-12.706 -103.014)" stroke="#707070" stroke-width="1" fill="url(#linear-gradient-2)"/>
    <path id="Path_15040" data-name="Path 15040" d="M48.388,128.114l-6.861-6.869L21.262,141.506c.748.792,1.985.891,3.379.1l23.747-13.491" transform="translate(-20.504 -100.338)" stroke="#707070" stroke-width="1" fill="url(#linear-gradient-3)"/>
    <path id="Path_15041" data-name="Path 15041" d="M48.388,122.425l-23.747-13.5c-1.393-.79-2.63-.693-3.379.1l20.265,20.256Z" transform="translate(-20.504 -108.385)" stroke="#707070" stroke-width="1" fill="url(#linear-gradient-4)"/>
    <g id="Group_1501" data-name="Group 1501" transform="translate(0 27.623)">
      <path id="Path_15042" data-name="Path 15042" d="M48.233,125.376,24.641,138.783a2.712,2.712,0,0,1-3.258.018h0l-.121.121h0l.121.117h0a2.707,2.707,0,0,0,3.258-.018l23.747-13.494Z" transform="translate(-20.504 -125.376)" stroke="#707070" stroke-width="1" opacity="0.2" style="isolation: isolate"/>
      <path id="Path_15043" data-name="Path 15043" d="M21.552,134.441a3.256,3.256,0,0,1-.752-2.284v.237a3.256,3.256,0,0,0,.752,2.284l.121-.121Z" transform="translate(-20.793 -121.133)" stroke="#707070" stroke-width="1" opacity="0.12" style="isolation: isolate"/>
    </g>
    <path id="Path_15044" data-name="Path 15044" d="M45.961,123.353l-8.106,4.611.152.15,7.955-4.521a2.854,2.854,0,0,0,1.7-2.346h0a3.025,3.025,0,0,1-1.7,2.106Z" transform="translate(-10.122 -100.338)" stroke="#707070" stroke-width="1" opacity="0.12" style="isolation: isolate"/>
    <path id="Path_15045" data-name="Path 15045" d="M24.93,109.169l31.7,18.013a3.025,3.025,0,0,1,1.7,2.111h0a2.847,2.847,0,0,0-1.7-2.347l-31.7-18.013c-2.273-1.291-4.131-.219-4.131,2.383v.238C20.8,108.95,22.657,107.877,24.93,109.169Z" transform="translate(-20.793 -108.385)" fill="#fff" stroke="#707070" stroke-width="1" opacity="0.25" style="isolation: isolate"/>
  </g>
</svg>
